<svg width="213" height="100" viewBox="0 0 213 100" fill="none" xmlns="http://www.w3.org/2000/svg">
<path d="M112.612 27.2143C112.612 27.2143 122.456 25.1454 127.65 22.2798C132.845 19.4141 132.167 11.4858 131.906 10.5904C131.646 9.69504 130.254 9.81731 129.806 10.3419C129.408 10.8093 114.689 22.5145 111.482 25.0606C110.924 25.5044 110.628 25.8949 110.778 26.5003C110.914 27.0585 111.535 27.4391 112.612 27.2143Z" fill="#5C2482"/>
<path d="M112.385 27.2822C112.385 27.2822 122.465 26.5308 128.149 24.3751C133.831 22.2195 134.786 14.2675 134.715 13.3445C134.644 12.4215 133.251 12.3603 132.705 12.8199C132.22 13.2301 115.385 22.894 111.718 24.9964C111.079 25.3632 110.711 25.7103 110.732 26.3316C110.752 26.9035 111.285 27.363 112.387 27.2802L112.385 27.2822Z" fill="#941B80"/>
<path d="M104.254 86.4962C103.895 86.6816 103.435 86.8512 102.881 87.003C102.325 87.1549 101.648 87.2318 100.853 87.2318C100.155 87.2318 99.534 87.1253 98.9897 86.9123C98.4454 86.6993 97.9819 86.3916 97.5993 85.9893C97.2167 85.587 96.9267 85.1018 96.7256 84.5338C96.5244 83.9678 96.4238 83.3288 96.4238 82.6208C96.4238 81.7056 96.5757 80.8142 96.8814 79.9484C97.1871 79.0826 97.6269 78.3115 98.2047 77.635C98.7826 76.9585 99.4847 76.4161 100.313 76.0079C101.141 75.5996 102.078 75.3945 103.125 75.3945C103.812 75.3945 104.409 75.4714 104.916 75.6233C105.423 75.7771 105.867 75.9606 106.247 76.1795L105.463 77.8302C105.113 77.6231 104.741 77.4634 104.342 77.347C103.944 77.2326 103.494 77.1754 102.993 77.1754C102.307 77.1754 101.692 77.3293 101.145 77.633C100.601 77.9387 100.134 78.3391 99.747 78.8341C99.3605 79.3291 99.0666 79.8932 98.8635 80.5263C98.6623 81.1574 98.5617 81.8003 98.5617 82.4551C98.5617 83.4688 98.7826 84.2183 99.2244 84.7034C99.6662 85.1886 100.311 85.4312 101.161 85.4312C101.816 85.4312 102.37 85.3582 102.828 85.2103C103.285 85.0624 103.678 84.9125 104.005 84.7606L104.25 86.4942L104.254 86.4962Z" fill="#5C2482"/>
<path d="M108.618 87.214C107.604 87.214 106.831 86.9143 106.297 86.3147C105.762 85.7151 105.496 84.9243 105.496 83.9441C105.496 83.313 105.595 82.6582 105.79 81.9817C105.985 81.3072 106.285 80.6899 106.689 80.1338C107.092 79.5776 107.598 79.12 108.21 78.7611C108.819 78.4022 109.539 78.2207 110.367 78.2207C111.381 78.2207 112.154 78.5185 112.689 79.1122C113.223 79.7058 113.49 80.4927 113.49 81.4749C113.49 82.1178 113.395 82.7765 113.204 83.453C113.012 84.1295 112.718 84.7448 112.32 85.301C111.922 85.8572 111.415 86.3147 110.799 86.6737C110.184 87.0326 109.456 87.214 108.618 87.214ZM110.121 79.8912C109.695 79.8912 109.316 80.0135 108.985 80.26C108.652 80.5045 108.376 80.8181 108.151 81.2007C107.928 81.5833 107.756 81.9995 107.636 82.4511C107.516 82.9028 107.456 83.3426 107.456 83.7666C107.456 84.3109 107.559 84.7428 107.768 85.0584C107.975 85.374 108.34 85.5317 108.863 85.5317C109.287 85.5317 109.665 85.4095 109.999 85.1629C110.33 84.9184 110.608 84.6068 110.833 84.232C111.056 83.8553 111.227 83.4392 111.348 82.9817C111.468 82.5241 111.527 82.0882 111.527 81.6741C111.527 81.1297 111.423 80.6958 111.216 80.3744C111.008 80.0529 110.644 79.8912 110.121 79.8912Z" fill="#5C2482"/>
<path d="M116.266 78.7962C116.702 78.6661 117.201 78.5438 117.763 78.4294C118.323 78.315 118.936 78.2578 119.601 78.2578C120.603 78.2578 121.339 78.5024 121.808 78.9935C122.275 79.4845 122.51 80.1433 122.51 80.9716C122.51 81.2004 122.49 81.443 122.453 81.6993C122.415 81.9557 122.368 82.22 122.315 82.4922L121.236 86.9869H119.26L120.272 82.7032C120.327 82.4646 120.38 82.218 120.435 81.9676C120.491 81.7171 120.522 81.4765 120.534 81.2477C120.544 80.8671 120.455 80.5495 120.264 80.2991C120.072 80.0486 119.7 79.9224 119.144 79.9224C118.674 79.9224 118.272 79.9717 117.935 80.0703L116.296 86.9849H114.306L116.268 78.7943L116.266 78.7962Z" fill="#5C2482"/>
<path d="M125.978 85.5968C126.5 85.5968 126.914 85.512 127.22 85.3424C127.526 85.1728 127.678 84.9144 127.678 84.5653C127.678 84.2813 127.579 84.0565 127.384 83.8869C127.189 83.7173 126.843 83.5181 126.354 83.2893C126.092 83.169 125.849 83.0448 125.627 82.9126C125.404 82.7825 125.21 82.6286 125.047 82.4551C124.883 82.2815 124.753 82.0764 124.654 81.8417C124.556 81.607 124.506 81.327 124.506 80.9996C124.506 80.1495 124.816 79.4731 125.437 78.9721C126.058 78.4712 126.958 78.2207 128.135 78.2207C128.68 78.2207 129.169 78.2779 129.599 78.3923C130.029 78.5067 130.354 78.623 130.571 78.7433L129.867 80.2797C129.681 80.1712 129.415 80.0647 129.066 79.9602C128.717 79.8576 128.352 79.8044 127.971 79.8044C127.786 79.8044 127.603 79.8202 127.423 79.8537C127.244 79.8872 127.082 79.9405 126.94 80.0174C126.798 80.0943 126.682 80.2008 126.589 80.3369C126.496 80.473 126.451 80.6386 126.451 80.8359C126.451 81.0863 126.552 81.2915 126.753 81.4492C126.954 81.607 127.246 81.7747 127.628 81.9482C127.987 82.1119 128.293 82.2697 128.543 82.4215C128.794 82.5734 129.001 82.747 129.165 82.9363C129.328 83.1276 129.449 83.3406 129.524 83.5733C129.601 83.808 129.638 84.0881 129.638 84.4155C129.638 84.8178 129.557 85.1925 129.393 85.5357C129.23 85.8788 128.993 86.1727 128.681 86.4192C128.37 86.6638 127.987 86.859 127.53 86.9991C127.072 87.1411 126.55 87.2121 125.96 87.2121C125.557 87.2121 125.195 87.1845 124.873 87.1312C124.552 87.076 124.272 87.0148 124.031 86.9438C123.79 86.8728 123.589 86.7999 123.426 86.723C123.262 86.648 123.138 86.581 123.049 86.5277L123.751 84.9736C123.828 85.017 123.938 85.0742 124.086 85.1452C124.234 85.2162 124.402 85.2832 124.593 85.3503C124.784 85.4154 124.995 85.4726 125.23 85.5219C125.465 85.5712 125.713 85.5948 125.974 85.5948L125.978 85.5968Z" fill="#5C2482"/>
<path d="M132.63 86.9851H130.652L132.711 78.4355H134.689L132.63 86.9851ZM134.102 77.1457C133.808 77.1457 133.552 77.0589 133.333 76.8834C133.114 76.7098 133.005 76.4475 133.005 76.0984C133.005 75.6961 133.143 75.3628 133.421 75.1005C133.699 74.8382 134.019 74.708 134.378 74.708C134.672 74.708 134.93 74.7987 135.155 74.9782C135.38 75.1577 135.49 75.422 135.49 75.771C135.49 76.1734 135.348 76.5047 135.064 76.7591C134.78 77.0155 134.459 77.1437 134.1 77.1437L134.102 77.1457Z" fill="#5C2482"/>
<path d="M137.501 88.3913C138.308 88.3913 138.915 88.2059 139.324 87.8351C139.732 87.4643 140.008 86.9575 140.15 86.3145L140.199 86.0857C139.98 86.1942 139.72 86.2948 139.414 86.3875C139.109 86.4802 138.787 86.5256 138.45 86.5256C137.491 86.5256 136.779 86.2672 136.316 85.7485C135.853 85.2318 135.622 84.5415 135.622 83.6796C135.622 82.8947 135.758 82.1709 136.03 81.5062C136.302 80.8416 136.687 80.2677 137.182 79.7825C137.677 79.2974 138.274 78.9187 138.973 78.6465C139.671 78.3744 140.444 78.2383 141.294 78.2383C141.708 78.2383 142.152 78.2856 142.627 78.3763C143.1 78.469 143.528 78.6189 143.911 78.826L142.177 86.0838C142.026 86.7267 141.832 87.2967 141.598 87.7917C141.363 88.2868 141.055 88.7009 140.675 89.0342C140.294 89.3656 139.823 89.62 139.26 89.7935C138.698 89.9671 138.02 90.0558 137.225 90.0558C136.647 90.0558 136.127 89.9927 135.663 89.8685C135.2 89.7423 134.793 89.5884 134.444 89.403L135.146 87.8016C135.44 87.9751 135.782 88.1171 136.168 88.2276C136.555 88.3361 136.998 88.3913 137.501 88.3913ZM138.937 84.9261C139.231 84.9261 139.533 84.8709 139.842 84.7624C140.152 84.6539 140.41 84.5178 140.617 84.3541L141.673 79.9896C141.422 79.9344 141.176 79.9088 140.937 79.9088C140.436 79.9088 139.98 80.0014 139.572 80.1868C139.164 80.3722 138.811 80.6227 138.517 80.9383C138.223 81.2538 137.994 81.6226 137.831 82.0407C137.667 82.4608 137.586 82.9105 137.586 83.3897C137.586 83.869 137.689 84.2457 137.896 84.5178C138.103 84.79 138.45 84.9261 138.939 84.9261H138.937Z" fill="#5C2482"/>
<path d="M146.361 78.7962C146.797 78.6661 147.296 78.5438 147.858 78.4294C148.418 78.315 149.031 78.2578 149.696 78.2578C150.698 78.2578 151.433 78.5024 151.903 78.9935C152.37 79.4845 152.605 80.1433 152.605 80.9716C152.605 81.2004 152.585 81.443 152.548 81.6993C152.51 81.9557 152.463 82.22 152.41 82.4922L151.331 86.9869H149.355L150.366 82.7032C150.422 82.4646 150.475 82.218 150.53 81.9676C150.585 81.7171 150.617 81.4765 150.629 81.2477C150.639 80.8671 150.55 80.5495 150.358 80.2991C150.167 80.0486 149.794 79.9224 149.238 79.9224C148.769 79.9224 148.367 79.9717 148.029 80.0703L146.39 86.9849H144.4L146.363 78.7943L146.361 78.7962Z" fill="#5C2482"/>
<path d="M161.074 83.6675C161.04 83.7878 161.009 83.983 160.975 84.2552C160.942 84.5274 160.926 84.7838 160.926 85.0244C160.926 85.3399 160.953 85.6476 161.007 85.9474C161.062 86.2472 161.149 86.5489 161.269 86.8546L159.504 87.1169C159.374 86.8546 159.269 86.5765 159.192 86.2826C158.92 86.5233 158.585 86.7382 158.186 86.9276C157.788 87.1189 157.338 87.2135 156.837 87.2135C156.336 87.2135 155.887 87.1287 155.522 86.9591C155.157 86.7895 154.859 86.5568 154.631 86.257C154.402 85.9572 154.232 85.6062 154.124 85.2019C154.015 84.7995 153.96 84.3637 153.96 83.8943C153.96 83.0995 154.102 82.3579 154.386 81.6716C154.67 80.9853 155.064 80.3916 155.571 79.8907C156.078 79.3897 156.68 78.9953 157.378 78.7054C158.076 78.4174 158.837 78.2715 159.666 78.2715C160.092 78.2715 160.518 78.307 160.95 78.378C161.379 78.449 161.813 78.5831 162.249 78.7783L161.072 83.6655L161.074 83.6675ZM159.999 79.9735C159.792 79.9301 159.557 79.9084 159.295 79.9084C158.804 79.9084 158.35 80.0149 157.936 80.2279C157.522 80.4409 157.165 80.723 156.865 81.078C156.565 81.433 156.333 81.8392 156.169 82.2968C156.005 82.7543 155.924 83.2336 155.924 83.7345C155.924 83.985 155.946 84.2197 155.989 84.4367C156.033 84.6556 156.106 84.8449 156.21 85.0086C156.313 85.1723 156.453 85.3025 156.626 85.4011C156.8 85.4997 157.025 85.549 157.297 85.549C157.646 85.549 157.954 85.476 158.22 85.3281C158.486 85.1802 158.735 84.983 158.963 84.7305C158.973 84.4465 158.999 84.1803 159.036 83.9298C159.074 83.6793 159.127 83.4288 159.192 83.1784L159.997 79.9755L159.999 79.9735Z" fill="#5C2482"/>
<path d="M165.994 87.2139C165.481 87.2139 165.039 87.1291 164.671 86.9595C164.3 86.7899 163.998 86.5592 163.763 86.2653C163.529 85.9714 163.357 85.6224 163.249 85.218C163.14 84.8157 163.085 84.3798 163.085 83.9105C163.085 83.1807 163.213 82.4747 163.47 81.7943C163.726 81.1139 164.091 80.5143 164.566 79.9956C165.041 79.4789 165.621 79.0647 166.31 78.7531C166.998 78.4415 167.777 78.2877 168.651 78.2877C168.759 78.2877 168.891 78.2936 169.043 78.3034C169.195 78.3133 169.365 78.3409 169.55 78.3843L170.441 74.6252L172.5 74.2979L170.262 83.5673C170.207 83.8178 170.165 84.0722 170.14 84.3266C170.112 84.583 170.098 84.8256 170.098 85.0544C170.098 85.3482 170.126 85.6421 170.179 85.9379C170.234 86.2318 170.321 86.5375 170.441 86.853L168.676 87.1153C168.556 86.8865 168.453 86.6085 168.365 86.2811C168.092 86.5217 167.759 86.7367 167.367 86.926C166.974 87.1173 166.517 87.212 165.994 87.212V87.2139ZM169.146 79.9897C168.939 79.9463 168.688 79.9246 168.394 79.9246C167.893 79.9246 167.436 80.0311 167.022 80.2441C166.607 80.4571 166.254 80.7411 165.96 81.0941C165.667 81.4491 165.44 81.8534 165.284 82.313C165.126 82.7705 165.047 83.2439 165.047 83.7349C165.047 83.9854 165.071 84.2201 165.12 84.437C165.17 84.656 165.248 84.8453 165.357 85.009C165.465 85.1727 165.611 85.3028 165.791 85.4015C165.97 85.5001 166.191 85.5494 166.454 85.5494C166.803 85.5494 167.11 85.4784 167.377 85.3364C167.643 85.1944 167.897 84.9991 168.136 84.7487C168.146 84.5199 168.171 84.2812 168.209 84.0288C168.246 83.7783 168.294 83.5338 168.347 83.2932L169.146 79.9917V79.9897Z" fill="#5C2482"/>
<path d="M175.591 87.214C174.577 87.214 173.804 86.9143 173.269 86.3147C172.735 85.7151 172.469 84.9243 172.469 83.9441C172.469 83.313 172.567 82.6582 172.763 81.9817C172.958 81.3072 173.258 80.6899 173.662 80.1338C174.064 79.5776 174.571 79.12 175.183 78.7611C175.794 78.4022 176.512 78.2207 177.34 78.2207C178.354 78.2207 179.127 78.5185 179.661 79.1122C180.196 79.7058 180.462 80.4927 180.462 81.4749C180.462 82.1178 180.368 82.7765 180.176 83.453C179.985 84.1295 179.691 84.7448 179.293 85.301C178.894 85.8572 178.387 86.3147 177.772 86.6737C177.157 87.0326 176.429 87.214 175.591 87.214ZM177.094 79.8912C176.668 79.8912 176.289 80.0135 175.958 80.26C175.624 80.5045 175.348 80.8181 175.123 81.2007C174.901 81.5833 174.729 81.9995 174.609 82.4511C174.488 82.9028 174.429 83.3426 174.429 83.7666C174.429 84.3109 174.532 84.7428 174.741 85.0584C174.948 85.374 175.313 85.5317 175.835 85.5317C176.259 85.5317 176.638 85.4095 176.971 85.1629C177.303 84.9184 177.581 84.6068 177.806 84.232C178.028 83.8553 178.2 83.4392 178.32 82.9817C178.441 82.5241 178.5 82.0882 178.5 81.6741C178.5 81.1297 178.395 80.6958 178.188 80.3744C177.981 80.0529 177.616 79.8912 177.094 79.8912Z" fill="#5C2482"/>
<path d="M183.746 85.5968C184.269 85.5968 184.683 85.512 184.989 85.3424C185.294 85.1728 185.446 84.9144 185.446 84.5653C185.446 84.2813 185.348 84.0565 185.152 83.8869C184.957 83.7173 184.612 83.5181 184.123 83.2893C183.861 83.169 183.618 83.0448 183.395 82.9126C183.172 82.7825 182.979 82.6286 182.815 82.4551C182.652 82.2815 182.521 82.0764 182.423 81.8417C182.324 81.607 182.275 81.327 182.275 80.9996C182.275 80.1495 182.584 79.4731 183.206 78.9721C183.827 78.4712 184.726 78.2207 185.904 78.2207C186.448 78.2207 186.937 78.2779 187.367 78.3923C187.797 78.5067 188.122 78.623 188.339 78.7433L187.635 80.2797C187.45 80.1712 187.184 80.0647 186.835 79.9602C186.486 79.8576 186.121 79.8044 185.74 79.8044C185.555 79.8044 185.371 79.8202 185.192 79.8537C185.012 79.8872 184.851 79.9405 184.709 80.0174C184.567 80.0943 184.45 80.2008 184.358 80.3369C184.265 80.473 184.219 80.6386 184.219 80.8359C184.219 81.0863 184.32 81.2915 184.521 81.4492C184.722 81.607 185.014 81.7747 185.397 81.9482C185.756 82.1119 186.062 82.2697 186.312 82.4215C186.562 82.5734 186.77 82.747 186.933 82.9363C187.097 83.1276 187.217 83.3406 187.292 83.5733C187.369 83.808 187.407 84.0881 187.407 84.4155C187.407 84.8178 187.326 85.1925 187.162 85.5357C186.998 85.8788 186.762 86.1727 186.45 86.4192C186.138 86.6638 185.756 86.859 185.298 86.9991C184.841 87.1411 184.318 87.2121 183.728 87.2121C183.326 87.2121 182.963 87.1845 182.642 87.1312C182.32 87.076 182.04 87.0148 181.8 86.9438C181.559 86.8728 181.358 86.7999 181.194 86.723C181.03 86.648 180.906 86.581 180.817 86.5277L181.519 84.9736C181.596 85.017 181.707 85.0742 181.855 85.1452C182.003 85.2162 182.17 85.2832 182.362 85.3503C182.553 85.4154 182.764 85.4726 182.999 85.5219C183.233 85.5712 183.482 85.5948 183.742 85.5948L183.746 85.5968Z" fill="#5C2482"/>
<path d="M63.1965 31.0127C59.0311 31.0127 53.2663 31.9239 51.0003 32.5747C50.1719 32.8351 49.5448 33.4208 49.4146 34.1367L48.2648 40.4498C48.1228 41.2308 48.5488 41.7515 49.2647 41.7515H49.4599C52.578 41.4261 56.7039 41.2959 60.8693 41.2959C63.0821 41.2959 65.0583 41.8816 64.4765 45.0707L64.3266 45.8951C67.2809 46.4888 68.63 47.4492 68.63 47.4492C67.6182 47.3151 64.7368 47.0173 64.1353 46.9562V46.9601H61.3347C50.4658 46.9601 44.0324 49.7587 42.6104 57.5687L42.4684 58.3497C40.8689 67.1359 46.334 69.9996 51.4756 69.9996C55.0551 69.9996 58.5696 68.5678 61.3761 66.7454L61.1276 68.1122C60.9974 68.8281 61.4767 69.4139 62.1926 69.4139H71.2392C71.9551 69.4139 72.6474 68.8281 72.7775 68.1122L76.9744 45.0707C78.3806 37.3475 72.6355 31.0127 63.1984 31.0127H63.1965ZM62.1394 60.0419C60.9383 60.5625 59.0982 61.0181 57.5362 61.0181C55.7139 61.0181 54.3353 60.3673 54.7376 58.1544L54.8559 57.5036C55.3549 54.7701 56.8459 53.7288 60.1001 53.7288H63.2892L62.1394 60.0419ZM169.651 28.8531H179.349C180.064 28.8531 180.911 28.1372 181.041 27.4213L182.425 20.416C182.555 19.7001 181.958 19.0492 181.242 19.0492H171.544C170.829 19.0492 169.994 19.7001 169.864 20.416L168.48 27.4213C168.349 28.1372 168.933 28.8531 169.651 28.8531ZM39.2557 60.7578H36.2618C34.6348 60.7578 34.5342 60.2371 34.8892 58.2846L37.242 45.3685L38.9776 35.8427L39.0091 35.6711C40.512 35.5074 41.9556 35.2964 43.281 35.0242C53.1796 32.985 57.8182 20.3943 58.0648 18.8875C58.3113 17.3807 56.1182 16.9271 55.067 17.5326C54.6627 17.7653 48.7164 20.0136 41.5573 22.6919L42.4093 18.4398C42.5276 17.789 42.0483 17.2032 41.3975 17.2032H41.2023L31.5541 17.1362C30.8146 17.2663 30.0691 17.787 29.9389 18.5029L28.0692 27.7132C23.1229 29.5493 18.8826 31.1192 16.8552 31.8687C15.6935 32.2986 14.9697 32.766 14.7607 33.7719C14.5674 34.7008 15.236 35.5765 17.0248 35.7224C17.0248 35.7224 21.2749 36.0695 26.7518 36.1405C27.6097 36.176 28.5702 36.2056 29.5997 36.2174L29.9803 36.2293C29.9803 36.2293 27.588 37.1227 26.1226 38.162L22.4149 58.1544C20.6478 67.8519 24.8131 70.0016 31.779 70.0016C34.1871 70.0016 35.329 69.8063 37.6779 69.4158C38.4826 69.2857 39.1511 68.8301 39.2813 68.1142L40.3956 61.9963C40.5258 61.2804 40.0347 60.7598 39.2537 60.7598L39.2557 60.7578ZM112.106 27.301C112.106 27.301 122.115 28.1215 128.173 26.873C134.232 25.6246 137.07 17.9211 137.22 16.9981C137.372 16.0771 136.029 15.799 135.386 16.1698C134.814 16.4991 116.08 23.4335 112.001 24.9422C111.291 25.2045 110.847 25.4925 110.719 26.1078C110.601 26.6758 111.011 27.2123 112.104 27.301H112.106ZM106.025 34.1328C106.185 33.0836 104.779 32.768 104.104 33.1901C103.864 33.3419 100.542 34.7126 96.3831 36.4068L97.0694 32.7266L97.7005 29.3482C98.0654 27.3976 98.6413 26.7488 100.268 26.7567L103.002 26.7685C103.783 26.7725 104.465 26.2538 104.599 25.5398L105.741 19.4259C105.875 18.71 105.374 18.2525 104.617 18.1203C102.921 17.787 100.755 17.5168 98.9331 17.5089C91.9692 17.4793 87.013 19.6034 85.2025 29.2949L84.5714 32.6733L82.8516 41.8876C81.4514 42.4516 80.3114 42.9111 79.6014 43.1971C78.8579 43.4969 78.3924 43.8243 78.2583 44.5244C78.1341 45.1713 78.5621 45.7807 79.7079 45.8833C79.7079 45.8833 82.258 46.1081 85.6049 46.1653C85.0901 46.3625 82.9424 47.2145 81.6801 48.1651L77.9546 68.1161C77.8205 68.8321 78.2978 69.4198 79.0137 69.4218L88.9064 69.4651C89.6223 69.4691 90.3185 68.8853 90.4526 68.1694L94.6436 45.7235C95.3043 45.6289 95.9413 45.5145 96.5389 45.3804C102.885 43.9545 105.866 35.18 106.023 34.1288L106.025 34.1328ZM197.185 19.1676H187.358C186.642 19.1676 185.819 19.7533 185.689 20.4692L177.021 68.0491C176.891 68.765 177.477 69.4809 178.193 69.4809H188.022C188.738 69.4809 189.454 68.765 189.584 68.0491L198.252 20.4692C198.382 19.7533 197.903 19.1676 197.187 19.1676H197.185ZM178.769 31.5985H169.071C168.355 31.5985 167.521 32.2493 167.391 32.9652L161.001 68.0471C160.871 68.763 161.457 69.479 162.172 69.479H171.87C172.586 69.479 173.432 68.763 173.562 68.0471L179.952 32.9652C180.082 32.2493 179.485 31.5985 178.769 31.5985ZM159.033 59.1307H158.903C156.654 59.326 154.536 59.5212 151.347 59.5212C148.548 59.5212 147.229 57.829 148.107 53.0129L148.996 48.1316C149.874 43.3155 151.822 41.5582 154.619 41.5582C157.808 41.5582 159.843 41.8185 162.021 42.0138H162.151C162.802 42.0138 163.482 41.4931 163.612 40.7772L164.951 33.4228C165.105 32.5767 164.709 32.2513 163.898 32.056C162.159 31.6004 159.011 31.0147 155.171 31.0147C145.213 31.0147 138.429 37.523 136.496 48.1336L135.607 53.0148C133.662 63.6885 138.098 70.0686 148.057 70.0686C151.897 70.0686 154.856 69.548 157.165 69.0273C158.047 68.8321 158.561 68.5066 158.717 67.6606L160.044 60.3712C160.175 59.6553 159.684 59.1346 159.033 59.1346V59.1307ZM121.077 31.1153C116.912 31.1153 111.149 32.0265 108.881 32.6773C108.053 32.9376 107.426 33.5234 107.295 34.2393L106.146 40.5524C106.004 41.3334 106.43 41.854 107.145 41.854H107.341C110.459 41.5286 114.585 41.3985 118.75 41.3985C120.963 41.3985 122.939 41.9842 122.357 45.1733L122.203 46.0115C125.075 46.6071 126.388 47.54 126.388 47.54C125.432 47.4118 122.809 47.1416 122.012 47.0587H119.214C108.343 47.0587 101.911 49.8573 100.489 57.6673L100.347 58.4483C98.7458 67.2346 104.213 70.0982 109.354 70.0982C112.934 70.0982 116.448 68.6664 119.255 66.8441L119.006 68.2108C118.876 68.9267 119.356 69.5125 120.071 69.5125H129.12C129.836 69.5125 130.528 68.9267 130.658 68.2108L134.855 45.1693C136.261 37.4461 130.516 31.1113 121.079 31.1113L121.077 31.1153ZM120.02 60.1444C118.819 60.6651 116.979 61.1207 115.417 61.1207C113.595 61.1207 112.216 60.4698 112.618 58.257L112.737 57.6062C113.236 54.8727 114.727 53.8313 117.981 53.8313H121.17L120.02 60.1444Z" fill="#E74E0F"/>
</svg>
