<svg width="52" height="52" viewBox="0 0 52 52" fill="none" xmlns="http://www.w3.org/2000/svg">
<path d="M26 0C20.8577 0 15.8309 1.52487 11.5552 4.38179C7.27951 7.23871 3.94702 11.2994 1.97914 16.0502C0.0112654 20.8011 -0.503621 26.0288 0.499594 31.0723C1.50281 36.1159 3.97907 40.7486 7.61524 44.3848C11.2514 48.0209 15.8842 50.4972 20.9277 51.5004C25.9712 52.5036 31.1989 51.9887 35.9498 50.0209C40.7007 48.053 44.7613 44.7205 47.6182 40.4448C50.4751 36.1691 52 31.1423 52 26C51.9927 19.1066 49.2511 12.4976 44.3767 7.62326C39.5024 2.74889 32.8934 0.00727955 26 0ZM36.1375 27.645L23.1375 36.645C22.8374 36.8525 22.4862 36.974 22.122 36.9963C21.7578 37.0185 21.3945 36.9407 21.0713 36.7713C20.7482 36.6019 20.4775 36.3472 20.2887 36.035C20.0998 35.7228 20 35.3649 20 35V17C20 16.6351 20.0998 16.2772 20.2887 15.965C20.4775 15.6528 20.7482 15.3981 21.0713 15.2287C21.3945 15.0593 21.7578 14.9815 22.122 15.0037C22.4862 15.026 22.8374 15.1475 23.1375 15.355L36.1375 24.355C36.4036 24.539 36.6211 24.7848 36.7713 25.0713C36.9215 25.3578 37 25.6765 37 26C37 26.3235 36.9215 26.6422 36.7713 26.9287C36.6211 27.2152 36.4036 27.461 36.1375 27.645Z" fill="white"/>
</svg>
