<svg width="205" height="61" viewBox="0 0 205 61" fill="none" xmlns="http://www.w3.org/2000/svg">
<path d="M105.227 28.5844C102.651 28.5844 100.333 29.7054 98.7452 31.5615C97.1558 29.7054 94.8392 28.5844 92.2631 28.5844C87.4971 28.5844 83.634 32.4669 83.634 37.2139V49.3852C83.634 49.6767 83.8689 49.9108 84.1569 49.9108H86.9332C87.2233 49.9108 87.4562 49.6747 87.4562 49.3852V37.0024C87.4562 34.6926 88.9884 32.6004 91.2294 32.0871C94.0874 31.4342 96.5981 33.5715 96.5981 36.3269V49.3831C96.5981 49.6747 96.8331 49.9087 97.1211 49.9087H99.924C100.214 49.9087 100.447 49.6726 100.447 49.3831V36.3269C100.447 33.9103 102.823 31.968 105.225 31.968C107.628 31.968 110.163 33.9103 110.163 36.3269V49.3831C110.163 49.6747 110.398 49.9087 110.686 49.9087H113.329C113.619 49.9087 113.852 49.6726 113.852 49.3831V37.5999C113.852 37.5137 113.852 37.4705 113.809 37.3843C113.852 37.3412 113.852 37.2981 113.852 37.2118C113.852 32.4669 109.989 28.5823 105.223 28.5823" fill="#5C2482"/>
<path d="M148.132 29.0361C143.423 30.19 140.173 34.5304 140.173 39.4005V59.9775C140.173 60.3656 140.486 60.6797 140.872 60.6797H143.419C143.805 60.6797 144.118 60.3656 144.118 59.9775V47.5209C146.208 49.1203 149.192 50.3584 152.087 50.0196C157.153 49.4262 161.129 45.1741 161.435 40.0576C161.858 33.0028 155.423 27.2478 148.132 29.0361ZM157.456 39.9569C157.178 43.3262 154.347 46.0138 150.982 46.098C147.221 46.1904 144.15 43.1579 144.15 39.4457V39.4026C144.15 36.5179 145.965 33.896 148.704 33.0357C153.48 31.5348 157.834 35.3681 157.456 39.959" fill="#5C2482"/>
<path d="M70.4124 28.4981C64.488 28.4981 59.6361 33.3313 59.6361 39.3287C59.6361 45.326 64.488 50.1592 70.4124 50.1592C76.3368 50.1592 81.1886 45.2829 81.1886 39.3287C81.1886 33.3744 76.3797 28.4981 70.4124 28.4981ZM70.4124 46.5846C66.4206 46.5846 63.1908 43.2893 63.1908 39.3266C63.1908 35.364 66.4226 32.0686 70.4124 32.0686C74.4021 32.0686 77.634 35.3168 77.634 39.3266C77.634 43.3365 74.4021 46.5846 70.4124 46.5846Z" fill="#5C2482"/>
<path d="M56.7945 40.7269C56.4472 40.2444 56.0121 39.8132 55.4952 39.4395C54.9783 39.0659 54.3696 38.7682 53.675 38.5526C53.3971 38.4745 52.9334 38.3514 52.2879 38.183C51.6403 38.0146 50.9784 37.8422 50.3022 37.6656C49.626 37.489 49.0131 37.3248 48.4656 37.1769C47.9181 37.0291 47.6056 36.9449 47.5259 36.9244C46.77 36.7068 46.1572 36.3865 45.6893 35.9615C45.2215 35.5364 44.9886 34.9492 44.9886 34.1998C44.9886 33.666 45.1132 33.2225 45.3625 32.8673C45.6117 32.5121 45.9243 32.2308 46.3022 32.0235C46.6801 31.8161 47.0969 31.6683 47.5565 31.58C48.0141 31.4917 48.4615 31.4465 48.8987 31.4465C50.1919 31.4465 51.2582 31.7278 52.0938 32.2904C52.8456 32.7975 53.2991 33.627 53.4564 34.7809C53.487 35.0108 53.6934 35.1771 53.9242 35.1771H56.7393C57.0172 35.1771 57.2316 34.9369 57.2133 34.6577C57.154 33.7645 56.9416 32.9659 56.5738 32.2616C56.1346 31.4239 55.5442 30.7176 54.7965 30.1448C54.0509 29.572 53.1847 29.1428 52.198 28.8574C51.2133 28.5721 50.1632 28.4283 49.0478 28.4283C48.0918 28.4283 47.1479 28.5515 46.2123 28.7979C45.2767 29.0443 44.4411 29.4241 43.7036 29.9374C42.9682 30.4507 42.3758 31.0975 41.9284 31.8756C41.481 32.6558 41.2563 33.5777 41.2563 34.6433C41.2563 35.1956 41.3298 35.7377 41.481 36.2715C41.6301 36.8053 41.8834 37.3083 42.243 37.7806C42.6005 38.2549 43.0846 38.684 43.6914 39.0679C44.2981 39.4519 45.0601 39.7639 45.9753 40.0001C47.4483 40.3943 48.6862 40.7166 49.6913 40.963C50.6964 41.2094 51.5769 41.4722 52.3328 41.7473C52.77 41.9054 53.1745 42.1764 53.5422 42.5624C53.9099 42.9464 54.0958 43.5439 54.0958 44.3528C54.0958 44.747 54.0161 45.1371 53.8568 45.5211C53.6975 45.9071 53.44 46.2458 53.0805 46.5415C52.723 46.8372 52.2552 47.0794 51.677 47.2663C51.0989 47.4531 50.4023 47.5476 49.5872 47.5476C48.8313 47.5476 48.1285 47.4634 47.483 47.295C46.8354 47.1287 46.2634 46.8618 45.767 46.4963C45.2685 46.1309 44.8803 45.6627 44.6025 45.0899C44.3757 44.6218 44.2409 44.0756 44.198 43.4515C44.1817 43.2071 43.9713 43.0182 43.7282 43.0182H40.9478C40.6781 43.0182 40.4554 43.2441 40.4738 43.5151C40.5433 44.6095 40.7843 45.5745 41.2011 46.408C41.6791 47.3648 42.3165 48.1491 43.1112 48.761C43.9079 49.3728 44.8436 49.8266 45.9181 50.1222C46.9927 50.4179 48.1367 50.5657 49.3522 50.5657C50.4064 50.5657 51.4421 50.4425 52.4574 50.1962C53.4727 49.9498 54.3777 49.5597 55.1745 49.0279C55.9712 48.4941 56.6127 47.8104 57.1009 46.9706C57.5892 46.1329 57.8323 45.1207 57.8323 43.936C57.8323 43.3837 57.7465 42.8314 57.5789 42.2791C57.4094 41.7268 57.1499 41.2094 56.8026 40.7248" fill="#5C2482"/>
<path d="M121.791 29.7957C120.177 30.5164 118.249 32.4361 117.528 34.0561C113.84 42.3489 118.99 49.5453 126.294 50.0791L126.314 50.114H136.964C137.384 50.114 137.726 49.7711 137.726 49.3482V39.4991C137.726 31.7155 130.345 25.9789 121.791 29.7937M134.014 45.6217C134.014 46.0446 133.672 46.3875 133.254 46.3875H126.923L126.933 46.3772C121.881 46.215 117.957 41.0225 121.199 35.3948C121.65 34.6105 122.304 33.9555 123.086 33.5017C128.772 30.1961 134.016 34.3189 134.016 39.5114V45.6237L134.014 45.6217Z" fill="#5C2482"/>
<path d="M204.385 29.843H201.795C201.454 29.843 201.178 30.1202 201.178 30.463V42.0676C201.178 44.5171 198.8 46.4943 196.363 46.4943C193.925 46.4943 191.537 44.5171 191.537 42.0676V30.463C191.537 30.1202 191.262 29.843 190.92 29.843H188.385C188.044 29.843 187.77 30.1202 187.77 30.463V41.7042C187.813 46.4306 191.66 50.2557 196.365 50.2557C197.989 50.2557 199.897 49.8266 201.18 49.0525V52.1467C201.18 54.6824 199.008 57.0374 196.442 57.0374C194.867 57.0374 192.859 56.0313 191.881 54.6741C191.697 54.4175 191.36 54.3292 191.084 54.4791L188.786 55.7213C188.475 55.8896 188.369 56.2818 188.547 56.5877C190.128 59.3061 192.99 61 196.15 61C201.025 61 205 57.0045 205 52.1487V30.4671C205 30.1243 204.724 29.8471 204.383 29.8471" fill="#5C2482"/>
<path d="M169.388 29.7957C167.774 30.5164 165.846 32.4361 165.125 34.0561C161.437 42.3489 166.588 49.5453 173.891 50.0791L173.911 50.114H184.69C185.039 50.114 185.323 49.8286 185.323 49.4775V39.5011C185.323 31.7175 177.942 25.9809 169.388 29.7957ZM181.611 45.749C181.611 46.1001 181.327 46.3855 180.978 46.3855H174.52L174.53 46.3752C169.478 46.213 165.554 41.0205 168.796 35.3927C169.247 34.6084 169.901 33.9534 170.684 33.4997C176.369 30.1941 181.613 34.3169 181.613 39.5093V45.749H181.611Z" fill="#5C2482"/>
<path d="M31.7567 43.2668L29.0642 40.5607C28.817 40.3122 28.7925 39.9098 29.0233 39.645C30.6086 37.8197 31.387 35.4483 31.1725 32.9742C30.8047 28.7097 27.3522 25.2398 23.1092 24.8723C20.6475 24.6588 18.288 25.439 16.4718 27.0343C16.2083 27.2663 15.8079 27.2417 15.5607 26.9933L12.8682 24.2892C12.5903 24.01 12.6108 23.5562 12.9029 23.2914C15.6853 20.7618 19.3135 19.4663 23.1214 19.6798C30.1898 20.0761 35.9467 25.8619 36.3389 32.966C36.5514 36.7931 35.2623 40.4375 32.7475 43.2339C32.484 43.5275 32.0325 43.548 31.7547 43.2688" fill="#5C2482"/>
<path d="M5.76708 31.4815L5.41774 31.5944C5.55257 31.7977 5.66493 32.159 5.66493 32.4301V32.5204C5.66493 33.9884 4.64145 34.6331 2.88865 34.6331C2.35954 34.6331 1.94483 34.5551 1.72011 34.4627C1.5955 34.5428 1.56281 34.6208 1.56281 34.7235C1.56281 34.9042 1.63023 34.9842 1.89989 35.0397L3.17056 35.323C5.12765 35.7521 5.80181 36.058 5.80181 37.1421V37.2325C5.80181 38.4746 4.83552 39.0742 2.85596 39.0742C0.988758 39.0742 0 38.4192 0 37.2325V37.1421C0 36.6781 0.192032 36.249 0.674153 35.8774C0.269661 35.6515 0.100101 35.1998 0.100101 34.8261C0.100101 34.4073 0.314605 34.0911 0.594481 33.8652C0.234932 33.5491 0.07763 32.9721 0.07763 32.5204V32.4301C0.07763 31.153 0.921343 30.2948 2.88865 30.2948H5.68741C5.84471 30.2948 5.96932 30.4303 5.96932 30.5884V31.2331C5.96932 31.3912 5.90191 31.4363 5.76708 31.4815ZM3.94686 37.1421C3.94686 36.9265 3.79977 36.7808 2.78854 36.5549L1.95709 36.3742C1.82226 36.5652 1.73237 36.7459 1.73237 37.1421V37.2325C1.73237 37.6164 1.99182 37.8094 2.858 37.8094C3.77935 37.8094 3.94891 37.5712 3.94891 37.2325V37.1421H3.94686ZM3.88966 32.4301C3.88966 31.9661 3.68742 31.617 2.88865 31.617C2.08988 31.617 1.86516 31.9681 1.86516 32.4301V32.5204C1.86516 32.9044 2.03268 33.3109 2.88865 33.3109C3.67516 33.3109 3.88966 33.005 3.88966 32.5204V32.4301Z" fill="#E74E0F"/>
<path d="M9.85694 31.7936H9.76706C9.2216 31.7936 8.74357 31.9619 8.3309 32.1857V36.6596C8.3309 36.7828 8.2308 36.8937 8.10823 36.8937H6.76197C6.63939 36.8937 6.52908 36.7828 6.52908 36.6596V30.5186C6.52908 30.3954 6.62918 30.2948 6.75175 30.2948H8.07554C8.19812 30.2948 8.29822 30.3954 8.29822 30.5186V30.8306C8.71088 30.4837 9.26655 30.2948 9.79974 30.2948C9.92231 30.2948 10.0224 30.3954 10.0224 30.5186V31.5801C10.0224 31.6807 9.95704 31.7936 9.8549 31.7936" fill="#E74E0F"/>
<path d="M15.8569 36.8834H14.6107C14.4882 36.8834 14.3881 36.7828 14.3881 36.6596V36.3024C13.7752 36.7397 13.287 36.8834 12.574 36.8834C10.9601 36.8834 10.6046 35.7542 10.6046 34.3436V30.5288C10.6046 30.4056 10.717 30.2948 10.8396 30.2948H12.1858C12.3084 30.2948 12.4085 30.4077 12.4085 30.5288V34.3436C12.4085 35.1259 12.5536 35.3846 13.2318 35.3846C13.5546 35.3846 13.8998 35.2286 14.2778 35.0273V30.5309C14.2778 30.4077 14.3779 30.2968 14.5004 30.2968H15.8467C15.9693 30.2968 16.0796 30.4097 16.0796 30.5309V36.6617C16.0796 36.7849 15.9795 36.8855 15.8569 36.8855" fill="#E74E0F"/>
<path d="M19.622 36.8937C19.3993 36.8937 19.0316 36.8608 18.7088 36.8157V38.7498C18.7088 38.873 18.6087 38.9736 18.4861 38.9736H17.1398C17.0173 38.9736 16.9049 38.873 16.9049 38.7498V30.8224C16.9049 30.6438 16.9621 30.4652 17.2502 30.4077C17.9121 30.2742 18.6066 30.2948 19.6199 30.2948C21.4217 30.2948 22.4125 31.346 22.4125 33.159V34.0316C22.4125 35.787 21.4994 36.8957 19.6199 36.8957M20.6128 33.159C20.6128 32.3644 20.4126 31.7936 19.622 31.7936C19.2542 31.7936 18.9212 31.8162 18.7088 31.849V35.3394C18.9764 35.3723 19.3543 35.4072 19.622 35.4072C20.4126 35.4072 20.6128 34.8138 20.6128 34.0316V33.159Z" fill="#E74E0F"/>
<path d="M25.7894 36.8937C23.9856 36.8937 22.9968 35.7644 22.9968 33.9864V33.2041C22.9968 31.4261 23.9876 30.2968 25.7894 30.2968C27.5913 30.2968 28.5719 31.4261 28.5719 33.2041V33.9864C28.5719 35.7644 27.5933 36.8937 25.7894 36.8937ZM26.7782 33.2021C26.7782 32.2966 26.4329 31.8367 25.7874 31.8367C25.1418 31.8367 24.7864 32.2946 24.7864 33.2021V33.9843C24.7864 34.8898 25.1418 35.36 25.7874 35.36C26.4329 35.36 26.7782 34.8898 26.7782 33.9843V33.2021Z" fill="#E74E0F"/>
<path d="M16.8641 45.3405H12.9172V41.3922C12.9172 40.8502 12.48 40.4128 11.9427 40.4128H9.06226C8.52293 40.4128 8.0878 40.8522 8.0878 41.3922V46.558C8.0878 48.5681 9.70781 50.1963 11.7078 50.1963H16.8641C17.4034 50.1963 17.8385 49.7569 17.8385 49.2169V46.3219C17.8385 45.7799 17.4013 45.3425 16.8641 45.3425" fill="#E74E0F"/>
<path d="M162.281 11.0724C161.497 11.0724 160.791 10.8999 160.163 10.555C159.536 10.2002 159.04 9.70251 158.678 9.06192C158.325 8.42133 158.148 7.68218 158.148 6.84449C158.148 6.00679 158.329 5.26764 158.692 4.62705C159.065 3.98646 159.57 3.49369 160.207 3.14876C160.845 2.79397 161.556 2.61657 162.34 2.61657C163.125 2.61657 163.835 2.79397 164.473 3.14876C165.11 3.49369 165.61 3.98646 165.973 4.62705C166.346 5.26764 166.532 6.00679 166.532 6.84449C166.532 7.68218 166.341 8.42133 165.958 9.06192C165.586 9.70251 165.076 10.2002 164.429 10.555C163.791 10.8999 163.076 11.0724 162.281 11.0724ZM162.281 9.26888C162.654 9.26888 163.002 9.18018 163.326 9.00279C163.659 8.81554 163.924 8.53959 164.12 8.17495C164.316 7.8103 164.414 7.36681 164.414 6.84449C164.414 6.06592 164.208 5.46967 163.796 5.05575C163.394 4.63198 162.899 4.42009 162.311 4.42009C161.722 4.42009 161.227 4.63198 160.825 5.05575C160.433 5.46967 160.237 6.06592 160.237 6.84449C160.237 7.62305 160.428 8.22422 160.81 8.648C161.203 9.06192 161.693 9.26888 162.281 9.26888Z" fill="#5C2482"/>
<path d="M148.165 6.81492C148.165 5.98708 148.326 5.25286 148.65 4.61227C148.983 3.97167 149.435 3.47891 150.003 3.13398C150.572 2.78904 151.205 2.61657 151.901 2.61657C152.43 2.61657 152.935 2.73484 153.416 2.97136C153.896 3.19804 154.279 3.50355 154.563 3.8879V0H156.652V10.9394H154.563V9.72715C154.308 10.1312 153.95 10.4564 153.489 10.7028C153.028 10.9492 152.494 11.0724 151.886 11.0724C151.2 11.0724 150.572 10.895 150.003 10.5402C149.435 10.1854 148.983 9.68773 148.65 9.04714C148.326 8.39669 148.165 7.65262 148.165 6.81492ZM154.578 6.84449C154.578 6.34187 154.48 5.91316 154.284 5.55837C154.087 5.19373 153.823 4.91778 153.489 4.73053C153.156 4.53342 152.798 4.43487 152.416 4.43487C152.033 4.43487 151.68 4.5285 151.356 4.71575C151.033 4.903 150.768 5.17895 150.562 5.54359C150.366 5.89838 150.268 6.32216 150.268 6.81492C150.268 7.30768 150.366 7.74131 150.562 8.11582C150.768 8.48046 151.033 8.76133 151.356 8.95844C151.69 9.15555 152.043 9.2541 152.416 9.2541C152.798 9.2541 153.156 9.16047 153.489 8.97322C153.823 8.77612 154.087 8.50017 154.284 8.14538C154.48 7.78074 154.578 7.3471 154.578 6.84449Z" fill="#5C2482"/>
<path d="M134.691 6.81492C134.691 5.98708 134.853 5.25286 135.177 4.61227C135.51 3.97167 135.956 3.47891 136.515 3.13398C137.084 2.78904 137.716 2.61657 138.413 2.61657C139.02 2.61657 139.55 2.73976 140.001 2.98615C140.462 3.23253 140.83 3.54297 141.104 3.91747V2.74962H143.178V10.9394H141.104V9.74193C140.839 10.1263 140.472 10.4466 140.001 10.7028C139.54 10.9492 139.006 11.0724 138.398 11.0724C137.711 11.0724 137.084 10.895 136.515 10.5402C135.956 10.1854 135.51 9.68773 135.177 9.04714C134.853 8.39669 134.691 7.65262 134.691 6.81492ZM141.104 6.84449C141.104 6.34187 141.006 5.91316 140.81 5.55837C140.614 5.19373 140.349 4.91778 140.016 4.73053C139.682 4.53342 139.324 4.43487 138.942 4.43487C138.56 4.43487 138.207 4.5285 137.883 4.71575C137.559 4.903 137.295 5.17894 137.089 5.54359C136.893 5.89838 136.795 6.32216 136.795 6.81492C136.795 7.30768 136.893 7.74131 137.089 8.11582C137.295 8.48046 137.559 8.76133 137.883 8.95844C138.216 9.15555 138.569 9.2541 138.942 9.2541C139.324 9.2541 139.682 9.16047 140.016 8.97322C140.349 8.77612 140.614 8.50017 140.81 8.14538C141.006 7.78074 141.104 7.3471 141.104 6.84449Z" fill="#5C2482"/>
<path d="M130.324 11.0724C129.657 11.0724 129.059 10.9541 128.529 10.7176C128 10.4712 127.578 10.1411 127.264 9.72715C126.96 9.31323 126.794 8.85496 126.764 8.35234H128.838C128.877 8.66771 129.029 8.92887 129.294 9.13583C129.569 9.3428 129.907 9.44628 130.309 9.44628C130.701 9.44628 131.005 9.36743 131.221 9.20975C131.447 9.05206 131.559 8.85003 131.559 8.60365C131.559 8.33756 131.422 8.14045 131.148 8.01233C130.883 7.87436 130.456 7.72653 129.868 7.56885C129.26 7.42102 128.76 7.26826 128.368 7.11058C127.985 6.95289 127.652 6.71144 127.367 6.38621C127.093 6.06099 126.955 5.62243 126.955 5.07054C126.955 4.61719 127.083 4.20327 127.338 3.82877C127.603 3.45427 127.975 3.15861 128.456 2.9418C128.946 2.72498 129.52 2.61657 130.177 2.61657C131.147 2.61657 131.922 2.86296 132.501 3.35572C133.079 3.83863 133.398 4.494 133.457 5.32185H131.486C131.456 4.99662 131.319 4.74039 131.074 4.55313C130.839 4.35603 130.52 4.25748 130.118 4.25748C129.745 4.25748 129.456 4.32646 129.25 4.46444C129.054 4.60241 128.956 4.79459 128.956 5.04097C128.956 5.31692 129.093 5.52881 129.368 5.67664C129.642 5.81461 130.069 5.95751 130.647 6.10534C131.236 6.25317 131.721 6.40593 132.104 6.56361C132.486 6.72129 132.814 6.96768 133.089 7.30275C133.373 7.62798 133.521 8.06161 133.53 8.60365C133.53 9.0767 133.398 9.50048 133.133 9.87498C132.878 10.2495 132.506 10.5451 132.015 10.762C131.535 10.9689 130.971 11.0724 130.324 11.0724Z" fill="#5C2482"/>
<path d="M125.702 6.66709C125.702 6.96275 125.683 7.22884 125.644 7.46537H119.687C119.736 8.05668 119.942 8.51988 120.304 8.85496C120.667 9.19004 121.113 9.35758 121.643 9.35758C122.408 9.35758 122.952 9.02743 123.276 8.36712H125.497C125.261 9.15555 124.81 9.80599 124.143 10.3185C123.477 10.8211 122.658 11.0724 121.687 11.0724C120.903 11.0724 120.196 10.8999 119.569 10.555C118.951 10.2002 118.466 9.70251 118.113 9.06192C117.77 8.42133 117.598 7.68218 117.598 6.84449C117.598 5.99693 117.77 5.25286 118.113 4.61227C118.456 3.97167 118.936 3.47891 119.554 3.13398C120.172 2.78904 120.883 2.61657 121.687 2.61657C122.462 2.61657 123.153 2.78411 123.761 3.11919C124.379 3.45427 124.854 3.93225 125.188 4.55313C125.531 5.16416 125.702 5.86881 125.702 6.66709ZM123.57 6.07577C123.56 5.54359 123.369 5.11981 122.996 4.80444C122.623 4.47922 122.167 4.31661 121.628 4.31661C121.118 4.31661 120.687 4.47429 120.334 4.78966C119.991 5.09517 119.78 5.52388 119.701 6.07577H123.57Z" fill="#5C2482"/>
<path d="M114.24 4.02095C114.505 3.58732 114.848 3.24731 115.27 3.00093C115.701 2.75455 116.191 2.63136 116.74 2.63136V4.80444H116.196C115.549 4.80444 115.059 4.9572 114.725 5.26271C114.402 5.56823 114.24 6.10041 114.24 6.85927V10.9394H112.181V2.74962H114.24V4.02095Z" fill="#5C2482"/>
<path d="M104.271 3.93225C104.536 3.55775 104.899 3.24731 105.36 3.00093C105.83 2.74469 106.365 2.61657 106.963 2.61657C107.659 2.61657 108.287 2.78904 108.846 3.13398C109.414 3.47891 109.861 3.97167 110.184 4.61227C110.518 5.243 110.684 5.97722 110.684 6.81492C110.684 7.65262 110.518 8.39669 110.184 9.04714C109.861 9.68773 109.414 10.1854 108.846 10.5402C108.287 10.895 107.659 11.0724 106.963 11.0724C106.365 11.0724 105.835 10.9492 105.374 10.7028C104.923 10.4564 104.556 10.146 104.271 9.7715V14.842H102.212V2.74962H104.271V3.93225ZM108.581 6.81492C108.581 6.32216 108.478 5.89838 108.272 5.54359C108.076 5.17894 107.811 4.903 107.478 4.71575C107.154 4.5285 106.801 4.43487 106.419 4.43487C106.046 4.43487 105.693 4.53342 105.36 4.73053C105.036 4.91778 104.771 5.19373 104.565 5.55837C104.369 5.92302 104.271 6.35172 104.271 6.84449C104.271 7.33725 104.369 7.76595 104.565 8.1306C104.771 8.49524 105.036 8.77612 105.36 8.97322C105.693 9.16047 106.046 9.2541 106.419 9.2541C106.801 9.2541 107.154 9.15555 107.478 8.95844C107.811 8.76133 108.076 8.48046 108.272 8.11582C108.478 7.75117 108.581 7.31754 108.581 6.81492Z" fill="#5C2482"/>
<path d="M96.9191 2.63136C97.9193 2.63136 98.7234 2.9418 99.3313 3.56268C99.9491 4.17371 100.258 5.03112 100.258 6.13491V10.9394H98.1988V6.41578C98.1988 5.77519 98.0369 5.28735 97.7134 4.95227C97.3898 4.60734 96.9485 4.43487 96.3896 4.43487C95.8306 4.43487 95.3845 4.60734 95.0511 4.95227C94.7275 5.28735 94.5657 5.77519 94.5657 6.41578V10.9394H92.5064V6.41578C92.5064 5.77519 92.3447 5.28735 92.0211 4.95227C91.6975 4.60734 91.2562 4.43487 90.6973 4.43487C90.1285 4.43487 89.6775 4.60734 89.344 4.95227C89.0205 5.28735 88.8587 5.77519 88.8587 6.41578V10.9394H86.7994V2.74962H88.8587V3.74007C89.1234 3.39514 89.4617 3.12412 89.8736 2.92701C90.2952 2.72991 90.7561 2.63136 91.2562 2.63136C91.8936 2.63136 92.4623 2.76933 92.9624 3.04528C93.4625 3.31137 93.8498 3.69573 94.1244 4.19834C94.3892 3.72529 94.7716 3.34586 95.2717 3.06006C95.7816 2.77426 96.3307 2.63136 96.9191 2.63136Z" fill="#5C2482"/>
<path d="M85.2964 6.66709C85.2964 6.96275 85.2768 7.22884 85.2375 7.46537H79.2805C79.3295 8.05668 79.5354 8.51988 79.8982 8.85496C80.2611 9.19004 80.7072 9.35758 81.2367 9.35758C82.0016 9.35758 82.5458 9.02743 82.8694 8.36712H85.0904C84.8551 9.15555 84.404 9.80599 83.7372 10.3185C83.0704 10.8211 82.2516 11.0724 81.2809 11.0724C80.4964 11.0724 79.7904 10.8999 79.1628 10.555C78.545 10.2002 78.0596 9.70251 77.7066 9.06192C77.3634 8.42133 77.1918 7.68218 77.1918 6.84449C77.1918 5.99693 77.3634 5.25286 77.7066 4.61227C78.0498 3.97167 78.5303 3.47891 79.1481 3.13398C79.7659 2.78904 80.4768 2.61657 81.2809 2.61657C82.0555 2.61657 82.7468 2.78411 83.3548 3.11919C83.9726 3.45427 84.4482 3.93225 84.7816 4.55313C85.1248 5.16416 85.2964 5.86881 85.2964 6.66709ZM83.1636 6.07577C83.1538 5.54359 82.9626 5.11981 82.5899 4.80444C82.2173 4.47922 81.7614 4.31661 81.222 4.31661C80.7121 4.31661 80.2807 4.47429 79.9277 4.78966C79.5844 5.09517 79.3736 5.52388 79.2952 6.07577H83.1636Z" fill="#5C2482"/>
<path d="M63.7183 6.81492C63.7183 5.98708 63.8801 5.25286 64.2037 4.61227C64.5371 3.97167 64.9833 3.47891 65.5422 3.13398C66.111 2.78904 66.7434 2.61657 67.4397 2.61657C68.0476 2.61657 68.5771 2.73976 69.0282 2.98615C69.4891 3.23253 69.8568 3.54297 70.1314 3.91747V2.74962H72.2053V10.9394H70.1314V9.74193C69.8666 10.1263 69.4989 10.4466 69.0282 10.7028C68.5673 10.9492 68.0329 11.0724 67.4249 11.0724C66.7385 11.0724 66.111 10.895 65.5422 10.5402C64.9833 10.1854 64.5371 9.68773 64.2037 9.04714C63.8801 8.39669 63.7183 7.65262 63.7183 6.81492ZM70.1314 6.84449C70.1314 6.34187 70.0333 5.91316 69.8372 5.55837C69.6411 5.19373 69.3763 4.91778 69.0429 4.73053C68.7095 4.53342 68.3516 4.43487 67.9692 4.43487C67.5867 4.43487 67.2337 4.5285 66.9101 4.71575C66.5865 4.903 66.3218 5.17894 66.1159 5.54359C65.9197 5.89838 65.8217 6.32216 65.8217 6.81492C65.8217 7.30768 65.9197 7.74131 66.1159 8.11582C66.3218 8.48046 66.5865 8.76133 66.9101 8.95844C67.2435 9.15555 67.5965 9.2541 67.9692 9.2541C68.3516 9.2541 68.7095 9.16047 69.0429 8.97322C69.3763 8.77612 69.6411 8.50017 69.8372 8.14538C70.0333 7.78074 70.1314 7.3471 70.1314 6.84449Z" fill="#5C2482"/>
<path d="M58.9548 2.63136C59.955 2.63136 60.7591 2.9418 61.3671 3.56268C61.9849 4.17371 62.2937 5.03112 62.2937 6.13491V10.9394H60.2345V6.41578C60.2345 5.77519 60.0727 5.28735 59.7491 4.95227C59.4255 4.60734 58.9843 4.43487 58.4253 4.43487C57.8664 4.43487 57.4202 4.60734 57.0868 4.95227C56.7632 5.28735 56.6014 5.77519 56.6014 6.41578V10.9394H54.5422V6.41578C54.5422 5.77519 54.3804 5.28735 54.0568 4.95227C53.7332 4.60734 53.292 4.43487 52.733 4.43487C52.1643 4.43487 51.7132 4.60734 51.3798 4.95227C51.0562 5.28735 50.8944 5.77519 50.8944 6.41578V10.9394H48.8352V2.74962H50.8944V3.74007C51.1592 3.39514 51.4975 3.12412 51.9093 2.92701C52.331 2.72991 52.7919 2.63136 53.292 2.63136C53.9293 2.63136 54.4981 2.76933 54.9982 3.04528C55.4983 3.31137 55.8856 3.69573 56.1602 4.19834C56.4249 3.72529 56.8074 3.34586 57.3075 3.06006C57.8174 2.77426 58.3665 2.63136 58.9548 2.63136Z" fill="#5C2482"/>
<path d="M46.8034 2.74962V10.9394H44.7295V9.90455C44.4647 10.2593 44.1166 10.5402 43.6852 10.7472C43.2635 10.9443 42.8026 11.0428 42.3025 11.0428C41.6651 11.0428 41.1013 10.9098 40.611 10.6437C40.1207 10.3677 39.7334 9.96861 39.449 9.44628C39.1745 8.91409 39.0372 8.28335 39.0372 7.55406V2.74962H41.0964V7.25841C41.0964 7.90885 41.2582 8.41147 41.5818 8.76626C41.9054 9.1112 42.3467 9.28366 42.9056 9.28366C43.4743 9.28366 43.9205 9.1112 44.2441 8.76626C44.5677 8.41147 44.7295 7.90885 44.7295 7.25841V2.74962H46.8034Z" fill="#5C2482"/>
</svg>
