<svg width="24" height="24" viewBox="0 0 24 24" fill="none" xmlns="http://www.w3.org/2000/svg">
<path d="M6.75 9.75C6.75 8.95435 7.06607 8.19129 7.62868 7.62868C8.19129 7.06607 8.95435 6.75 9.75 6.75L11.25 9.75L10.095 11.4816C10.5532 12.5763 11.4237 13.4468 12.5184 13.905L14.25 12.75L17.25 14.25C17.25 15.0456 16.9339 15.8087 16.3713 16.3713C15.8087 16.9339 15.0456 17.25 14.25 17.25C12.2609 17.25 10.3532 16.4598 8.9467 15.0533C7.54018 13.6468 6.75 11.7391 6.75 9.75Z" stroke="#1A1A1A" stroke-width="1.5" stroke-linecap="round" stroke-linejoin="round"/>
<path d="M7.49258 19.7914C9.38308 20.8856 11.607 21.2549 13.7496 20.8304C15.8923 20.406 17.8075 19.2168 19.1381 17.4846C20.4687 15.7524 21.124 13.5954 20.9817 11.4157C20.8394 9.23605 19.9093 7.18253 18.3648 5.638C16.8202 4.09348 14.7667 3.16336 12.5871 3.02108C10.4074 2.87879 8.2504 3.53405 6.51819 4.86468C4.78597 6.1953 3.59679 8.11048 3.17235 10.2531C2.74792 12.3958 3.11719 14.6197 4.21133 16.5102L3.03852 20.0118C2.99445 20.1439 2.98806 20.2857 3.02005 20.4213C3.05205 20.5569 3.12117 20.6808 3.21967 20.7794C3.31817 20.8779 3.44216 20.947 3.57774 20.979C3.71331 21.011 3.85512 21.0046 3.98727 20.9605L7.49258 19.7914Z" stroke="#1A1A1A" stroke-width="1.5" stroke-linecap="round" stroke-linejoin="round"/>
</svg>
