<svg width="685" height="636" viewBox="0 0 685 636" fill="none" xmlns="http://www.w3.org/2000/svg">
<path d="M907.946 -234.876C869.249 -144.502 830.676 -54.1275 791.98 36.3704C781.1 61.9621 770.221 87.6773 759.341 113.269C755.509 122.665 749.945 136.388 743.022 152.831C734.368 173.601 732.637 177.31 730.288 181.637C730.288 181.637 719.285 204.509 694.806 221.57C657.717 247.285 614.075 246.667 564.87 247.038C576.738 217.861 753.283 -219.051 759.836 -234.876H907.822H907.946Z" stroke="#42CE02" stroke-miterlimit="10"/>
<path d="M577.357 60.3545H458.672L320.205 -212.005C314.765 -222.513 322.43 -235 334.299 -235H426.527C444.825 -235 461.515 -224.615 469.798 -208.296L591.451 37.4828C596.767 47.9914 589.102 60.3545 577.357 60.3545Z" stroke="#42CE02" stroke-miterlimit="10"/>
<path d="M318.474 822.787C357.171 732.412 395.744 642.038 434.44 551.54C445.32 525.949 456.199 500.233 467.079 474.642C470.911 465.246 476.475 451.523 483.398 435.08C492.052 414.31 493.783 410.477 496.132 406.274C496.132 406.274 507.135 383.402 531.614 366.341C568.703 340.626 612.345 341.244 661.55 340.873C649.682 370.05 473.137 806.962 466.584 822.787H318.598H318.474Z" stroke="#42CE02" stroke-miterlimit="10"/>
<path d="M649.065 527.555H767.75L906.217 799.914C911.657 810.423 903.992 822.91 892.123 822.91H799.894C781.597 822.91 764.907 812.525 756.624 796.205L634.971 550.427C629.655 539.918 637.32 527.555 649.188 527.555H649.065Z" stroke="#42CE02" stroke-miterlimit="10"/>
<path d="M0.247559 -24.3325C90.6218 14.364 180.996 52.9369 271.494 91.6334C297.086 102.513 322.801 113.392 348.392 124.272C357.788 128.105 371.511 133.668 387.954 140.591C408.724 149.245 412.433 150.976 416.76 153.325C416.76 153.325 439.632 164.328 456.693 188.807C482.408 225.897 481.79 269.538 482.161 318.744C452.861 306.875 15.9487 130.33 0.247559 123.654V-24.3325Z" fill="#42CE02"/>
<path d="M295.354 306.381V425.067L22.9954 563.533C12.4867 568.973 0 561.308 0 549.439V457.211C0 438.913 10.385 422.223 26.7043 413.94L272.483 292.287C282.991 286.971 295.354 294.636 295.354 306.381Z" fill="#42CE02"/>
</svg>
